name processed_emg_signals
nRows=57
nColumns=7
 
endheader
time	LGLTMED	LRF	LADDLONG	LST	LTA	LGM
0.642	0.1441371475718326	0.1769506221934604	0.0966582273594599	0.0471481478216427	0.4157005591858649	0.1363938584045311
0.643	0.1455943126023438	0.1771558634732235	0.0967337043940112	0.0466787639017089	0.4140278261671233	0.1360929941615233
0.644	0.1470590903533737	0.1773291045444506	0.0967986988663078	0.0462189551818377	0.4123100087553801	0.1358023922744083
0.645	0.1485295227814309	0.1774707685035312	0.0968533203356726	0.0457686832077554	0.4105494444480485	0.1355217326650375
0.646	0.150003637710267	0.1775813154213348	0.0968976893380416	0.0453279029385402	0.4087484498404183	0.1352507176172638
0.647	0.1514794521640221	0.1776612408810886	0.0969319369174668	0.0448965628279092	0.4069093176808408	0.1349890709526321
0.648	0.1529549757436729	0.1777110744474169	0.0969562041357843	0.0444746049232526	0.4050343140412443	0.1347365371520479
0.649	0.154428214040828	0.1777313780751673	0.0969706415639289	0.0440619649816215	0.4031256756041917	0.134492880428261
0.65	0.1558971720829538	0.1777227444662678	0.0969754087582036	0.0436585726018043	0.4011856070674505	0.1342578837537882
0.651	0.1573598578040217	0.1776857953823887	0.0969706737246195	0.0432643513715133	0.3992162786668627	0.1340313478485287
0.652	0.1588142855343386	0.1776211799206693	0.0969566123742475	0.0428792190285851	0.3972198238179371	0.1338130901310146
0.653	0.1602584795031892	0.1775295727593288	0.0969334079723034	0.04250308763498	0.3951983368759008	0.1336029436368237
0.654	0.1616904773477713	0.1774116723795043	0.0969012505835705	0.0421358637622631	0.3931538710131202	0.1334007559074813
0.655	0.1631083336218165	0.1772681992693342	0.0968603365166475	0.0417774486871518	0.3910884362117941	0.1332063878529036
0.656	0.1645101232970745	0.1770998941160672	0.0968108677694364	0.0414277385956279	0.389003997368919	0.1330197125903977
0.657	0.1658939452504795	0.1769075159918077	0.0967530514782306	0.0410866247940703	0.3869024725099032	0.1328406142632252
0.658	0.1672579257293703	0.1766918405383927	0.0966870993727142	0.0407539939259089	0.384785731106991	0.1326689868419026
0.659	0.1686002217867976	0.1764536581566091	0.0966132272391387	0.040429728192304	0.3826555924990309	0.1325047329118069
0.66	0.1699190246787195	0.1761937722046226	0.0965316543939218	0.0401137055756048	0.3805138244100644	0.1323477624510665
0.661	0.1712125632148716	0.1759129972101472	0.0964426031698558	0.039805800064458	0.3783621415655207	0.1321979916032883
0.662	0.1724791070550552	0.1756121571005504	0.0963462984170475	0.0395058818797361	0.3762022044063478	0.1320553414500735
0.663	0.1737169699424955	0.1752920834550385	0.096242967020648	0.0392138177006642	0.3740356179027995	0.131919736788786
0.664	0.1749245128657217	0.1749536137830856	0.0961328374372758	0.0389294708907197	0.3718639304707494	0.1317911049214185
0.665	0.1761001471402033	0.1745975898333967	0.0960161392519001	0.0386527017230061	0.3696886329942509	0.1316693744607296
0.666	0.1772423374007929	0.1742248559377988	0.095893102756711	0.0383833676048724	0.3675111579585163	0.1315544741599265
0.667	0.1783496044958888	0.173836257394403	0.0957639585533441	0.0381213233015078	0.3653328786974733	0.131446331772164
0.668	0.1794205282740115	0.1734326388941371	0.0956289371796828	0.0378664211582117	0.3631551087594108	0.1313448729459429
0.669	0.180453750253293	0.173014842994445	0.0954882687622118	0.0376185113209778	0.3609791013933149	0.1312500201621807
0.67	0.1814479761641878	0.1725837086435249	0.0953421826947571	0.03737744195501	0.3588060491573923	0.131161691718392
0.671	0.1824019783556579	0.172140069758134	0.0951909073441675	0.0371430594607667	0.3566370836503681	0.1310798007649546
0.672	0.1833145980551396	0.1716847538575847	0.0950346697833077	0.0369152086871254	0.354473275365336	0.1310042543980069
0.673	0.1841847474727551	0.1712185807563147	0.0948736955515933	0.0366937331411911	0.3523156336653949	0.1309349528130056
0.674	0.1850114117407346	0.1707423613171156	0.0947082084432163	0.0364784751942399	0.3501651068799462	0.1308717885225193
0.675	0.1857936506796692	0.1702568962668861	0.0945384303231273	0.0362692762832549	0.3480225825202993	0.1308146456413489
0.676	0.186530600384222	0.1697629750764009	0.0943645809707607	0.0360659771074399	0.3458888876130341	0.130763399241644
0.677	0.1872214746220009	0.1692613749052187	0.0941868779513354	0.0358684178190898	0.3437647891494237	0.1307179147802658
0.678	0.1878655660404689	0.1687528596124538	0.0940055365143966	0.0356764382081564	0.3416509946490265	0.1306780476003034
0.679	0.188462247177867	0.1682381788338704	0.0938207695190693	0.0354898778799076	0.3395481528354698	0.1306436425082737
0.68	0.189010971275115	0.1677180671254729	0.09363278738536	0.0353085764250957	0.3374568544224732	0.1306145334282187
0.681	0.1895112728865748	0.1671932431735974	0.0934417980706075	0.0351323735821756	0.3353776330083119	0.1305905431335221
0.682	0.1899627682882595	0.1666644090712545	0.0932480070699878	0.0349611093912522	0.3333109660769956	0.1305714830569543
0.683	0.1903651556825913	0.1661322496601686	0.093051617439777	0.0347946243395862	0.3312572761041215	0.1305571531790546
0.684	0.1907182151994364	0.1655974319375805	0.0928528298419151	0.0346327594987006	0.3292169317649295	0.130547341994655
0.685	0.1910218086936596	0.1650606045264041	0.0926518426083095	0.0344753566532306	0.3271902492414343	0.1305418265569752
0.686	0.191275879340088	0.1645223972068543	0.0924488518232064	0.0343222584218311	0.3251774936248808	0.1305403725983898
0.687	0.1914804510271783	0.1639834205073488	0.0922440514219085	0.0341733083704972	0.3231788804090436	0.130542734726542
0.6880000000000001	0.1916356275512302	0.1634442653523254	0.0920376333041011	0.0340283511187385	0.3211945770692641	0.1305486566940732
0.6890000000000001	0.1917415916136912	0.1629055027646737	0.0918297874601103	0.0338872324390766	0.3192247047216144	0.13055787173985
0.6900000000000001	0.1917986036249646	0.1623676836205344	0.0916207021084182	0.0337497993502836	0.3172693398565458	0.1305701029991291
0.6910000000000001	0.1918070003189949	0.1618313384542677	0.0914105638426483	0.0336159002048177	0.3153285161414327	0.1305850639797343
0.6920000000000001	0.1917671931839435	0.1612969773114532	0.0911995577860902	0.0334853847708889	0.3134022262867548	0.1306024591009816
0.6930000000000001	0.1916796667154937	0.160765089647681	0.0909878677516711	0.0333581043095893	0.3114904239708604	0.1306219842917541
0.6940000000000001	0.1915449765007989	0.1602361442707373	0.0907756764051876	0.0332339116475862	0.3095930258184489	0.1306433276439237
0.6950000000000001	0.1913637471424205	0.1597105893234624	0.0905631654295429	0.0331126612458393	0.307709913427879	0.1306661701171081
0.6960000000000001	0.1911366700326354	0.1591888523043352	0.0903505156876954	0.0329942092647788	0.3058409354423377	0.1306901862906824
0.6970000000000001	0.1908645009893018	0.1586713401226744	0.0901379073821059	0.0328784136263599	0.3039859096597506	0.1307150451588334
0.6980000000000001	0.1905480577649507	0.1581584391851329	0.0899255202086323	0.0327651340733379	0.3021446251762492	0.1307404109643971
